# Wavefront OBJ file automatically generated by Tiled2Unity

# Vertices (Count = 82)
v -840 -630 0
v -910 -630 0
v -910 -560 0
v -840 -560 0
v -980 -630 0
v -980 -560 0
v -1050 -630 0
v -1050 -560 0
v -1120 -630 0
v -1120 -560 0
v -1190 -630 0
v -1190 -560 0
v -1260 -630 0
v -1260 -560 0
v -1330 -630 0
v -1330 -560 0
v -210 -700 0
v -280 -700 0
v -280 -630 0
v -210 -630 0
v -350 -700 0
v -350 -630 0
v -420 -700 0
v -420 -630 0
v -490 -700 0
v -490 -630 0
v -560 -700 0
v -560 -630 0
v -630 -700 0
v -630 -630 0
v -1470 -770 0
v -1540 -770 0
v -1540 -700 0
v -1470 -700 0
v -1610 -770 0
v -1610 -700 0
v -1680 -770 0
v -1680 -700 0
v -1750 -770 0
v -1750 -700 0
v -1820 -770 0
v -1820 -700 0
v -1890 -770 0
v -1890 -700 0
v -910 -980 0
v -980 -980 0
v -980 -910 0
v -910 -910 0
v -1050 -980 0
v -1050 -910 0
v -1120 -980 0
v -1190 -980 0
v -1190 -910 0
v -1120 -910 0
v -1260 -980 0
v -1260 -910 0
v -700 -700 0
v -700 -630 0
v -700 -770 0
v -770 -770 0
v -770 -700 0
v -770 -840 0
v -840 -840 0
v -840 -770 0
v -840 -910 0
v -910 -840 0
v -630 -770 0
v -700 -840 0
v -770 -910 0
v -840 -980 0
v -1400 -770 0
v -1400 -700 0
v -1330 -840 0
v -1400 -840 0
v -1330 -770 0
v -1330 -910 0
v -1260 -840 0
v -1470 -840 0
v -1400 -910 0
v -1330 -980 0
v -1120 -840 0
v -1050 -840 0

# Texture cooridinates (Count = 4)
vt 0.0001220703 0.0001220703
vt 0.9998779 0.0001220703
vt 0.9998779 0.9998779
vt 0.0001220703 0.9998779

# Normal
vn 0 0 -1

# Groups (Count = 1)

g mesh_0001
f 1/1/1 2/2/1 3/3/1 4/4/1
f 2/1/1 5/2/1 6/3/1 3/4/1
f 5/1/1 7/2/1 8/3/1 6/4/1
f 7/1/1 9/2/1 10/3/1 8/4/1
f 9/1/1 11/2/1 12/3/1 10/4/1
f 11/1/1 13/2/1 14/3/1 12/4/1
f 13/1/1 15/2/1 16/3/1 14/4/1
f 17/1/1 18/2/1 19/3/1 20/4/1
f 18/1/1 21/2/1 22/3/1 19/4/1
f 21/1/1 23/2/1 24/3/1 22/4/1
f 23/1/1 25/2/1 26/3/1 24/4/1
f 25/1/1 27/2/1 28/3/1 26/4/1
f 27/1/1 29/2/1 30/3/1 28/4/1
f 31/1/1 32/2/1 33/3/1 34/4/1
f 32/1/1 35/2/1 36/3/1 33/4/1
f 35/1/1 37/2/1 38/3/1 36/4/1
f 37/1/1 39/2/1 40/3/1 38/4/1
f 39/1/1 41/2/1 42/3/1 40/4/1
f 41/1/1 43/2/1 44/3/1 42/4/1
f 45/1/1 46/2/1 47/3/1 48/4/1
f 46/1/1 49/2/1 50/3/1 47/4/1
f 51/1/1 52/2/1 53/3/1 54/4/1
f 52/1/1 55/2/1 56/3/1 53/4/1

g mesh_0002
f 29/1/1 57/2/1 58/3/1 30/4/1
f 59/1/1 60/2/1 61/3/1 57/4/1
f 62/1/1 63/2/1 64/3/1 60/4/1
f 65/1/1 48/2/1 66/3/1 63/4/1

g mesh_0003
f 67/1/1 59/2/1 57/3/1 29/4/1
f 68/1/1 62/2/1 60/3/1 59/4/1
f 69/1/1 65/2/1 63/3/1 62/4/1
f 70/1/1 45/2/1 48/3/1 65/4/1

g mesh_0004
f 71/1/1 31/2/1 34/3/1 72/4/1
f 73/1/1 74/2/1 71/3/1 75/4/1
f 56/1/1 76/2/1 73/3/1 77/4/1

g mesh_0005
f 74/1/1 78/2/1 31/3/1 71/4/1
f 76/1/1 79/2/1 74/3/1 73/4/1
f 55/1/1 80/2/1 76/3/1 56/4/1

g mesh_0006
f 50/1/1 54/2/1 81/3/1 82/4/1

g mesh_0007
f 49/1/1 51/2/1 54/3/1 50/4/1

